<mxfile host="app.diagrams.net" modified="2020-08-11T03:35:38.050Z" agent="5.0 (Windows NT 10.0; Win64; x64) AppleWebKit/537.36 (KHTML, like Gecko) Chrome/84.0.4147.105 Safari/537.36" etag="_T7emzKgrRjVcmFvpEQJ" version="13.6.2" type="github">
  <diagram id="eVspJkQAPM_MPWeQSlbB" name="Page-1">
    <mxGraphModel dx="868" dy="1550" grid="1" gridSize="10" guides="1" tooltips="1" connect="1" arrows="1" fold="1" page="1" pageScale="1" pageWidth="850" pageHeight="1100" math="0" shadow="0">
      <root>
        <mxCell id="0" />
        <mxCell id="1" parent="0" />
        <mxCell id="myLv9xXl2vDcifVCrI2M-1" value="" style="rounded=0;whiteSpace=wrap;html=1;" parent="1" vertex="1">
          <mxGeometry x="10" y="-70" width="900" height="1320" as="geometry" />
        </mxCell>
        <mxCell id="myLv9xXl2vDcifVCrI2M-2" value="" style="whiteSpace=wrap;html=1;aspect=fixed;" parent="1" vertex="1">
          <mxGeometry x="70" y="60" width="250" height="250" as="geometry" />
        </mxCell>
        <mxCell id="myLv9xXl2vDcifVCrI2M-3" value="&lt;font style=&quot;font-size: 24px&quot;&gt;JOHN DOE&lt;/font&gt;" style="text;html=1;strokeColor=none;fillColor=none;align=center;verticalAlign=middle;whiteSpace=wrap;rounded=0;" parent="1" vertex="1">
          <mxGeometry x="348" y="55" width="152" height="30" as="geometry" />
        </mxCell>
        <mxCell id="myLv9xXl2vDcifVCrI2M-4" value="" style="html=1;verticalLabelPosition=bottom;align=center;labelBackgroundColor=#ffffff;verticalAlign=top;strokeWidth=2;strokeColor=#0080F0;shadow=0;dashed=0;shape=mxgraph.ios7.icons.location;" parent="1" vertex="1">
          <mxGeometry x="540" y="65" width="20" height="20" as="geometry" />
        </mxCell>
        <mxCell id="myLv9xXl2vDcifVCrI2M-5" value="&lt;font style=&quot;font-size: 14px&quot;&gt;New Mexico&lt;/font&gt;" style="text;html=1;strokeColor=none;fillColor=none;align=center;verticalAlign=middle;whiteSpace=wrap;rounded=0;" parent="1" vertex="1">
          <mxGeometry x="550" y="65" width="100" height="20" as="geometry" />
        </mxCell>
        <mxCell id="myLv9xXl2vDcifVCrI2M-6" value="&lt;font style=&quot;font-size: 24px&quot;&gt;CONTACT INFORMATION&lt;/font&gt;" style="text;html=1;strokeColor=none;fillColor=#FFFFFF;align=center;verticalAlign=middle;whiteSpace=wrap;rounded=0;fontColor=#4D4D4D;" parent="1" vertex="1">
          <mxGeometry x="354" y="340" width="306" height="20" as="geometry" />
        </mxCell>
        <mxCell id="myLv9xXl2vDcifVCrI2M-7" value="&lt;font style=&quot;font-size: 24px&quot;&gt;Timeline&lt;/font&gt;" style="shape=trapezoid;perimeter=trapezoidPerimeter;whiteSpace=wrap;html=1;fixedSize=1;" parent="1" vertex="1">
          <mxGeometry x="360" y="280" width="140" height="30" as="geometry" />
        </mxCell>
        <mxCell id="myLv9xXl2vDcifVCrI2M-10" value="&lt;font style=&quot;font-size: 24px&quot;&gt;About&lt;/font&gt;" style="shape=trapezoid;perimeter=trapezoidPerimeter;whiteSpace=wrap;html=1;fixedSize=1;fillColor=#1ba1e2;strokeColor=#006EAF;fontColor=#ffffff;" parent="1" vertex="1">
          <mxGeometry x="500" y="280" width="140" height="30" as="geometry" />
        </mxCell>
        <mxCell id="myLv9xXl2vDcifVCrI2M-11" value="&lt;font style=&quot;font-size: 14px&quot;&gt;&lt;b&gt;Phone:&amp;nbsp;&lt;/b&gt;&lt;/font&gt;" style="text;html=1;strokeColor=none;fillColor=none;align=center;verticalAlign=middle;whiteSpace=wrap;rounded=0;" parent="1" vertex="1">
          <mxGeometry x="360" y="420" width="50" height="20" as="geometry" />
        </mxCell>
        <mxCell id="myLv9xXl2vDcifVCrI2M-12" value="555-666-9999" style="rounded=1;whiteSpace=wrap;html=1;fillColor=#FFFFFF;" parent="1" vertex="1">
          <mxGeometry x="445" y="410" width="270" height="40" as="geometry" />
        </mxCell>
        <mxCell id="myLv9xXl2vDcifVCrI2M-14" value="&lt;span style=&quot;font-size: 14px&quot;&gt;&lt;b&gt;Address:&lt;/b&gt;&lt;/span&gt;" style="text;html=1;strokeColor=none;fillColor=none;align=center;verticalAlign=middle;whiteSpace=wrap;rounded=0;" parent="1" vertex="1">
          <mxGeometry x="354" y="515" width="60" height="20" as="geometry" />
        </mxCell>
        <mxCell id="myLv9xXl2vDcifVCrI2M-15" value="&lt;font style=&quot;font-size: 14px&quot;&gt;&lt;b&gt;Email:&lt;/b&gt;&lt;/font&gt;" style="text;html=1;strokeColor=none;fillColor=none;align=center;verticalAlign=middle;whiteSpace=wrap;rounded=0;" parent="1" vertex="1">
          <mxGeometry x="348" y="620" width="50" height="20" as="geometry" />
        </mxCell>
        <mxCell id="myLv9xXl2vDcifVCrI2M-16" value="" style="rounded=1;whiteSpace=wrap;html=1;fillColor=#FFFFFF;" parent="1" vertex="1">
          <mxGeometry x="445" y="490" width="280" height="70" as="geometry" />
        </mxCell>
        <mxCell id="myLv9xXl2vDcifVCrI2M-18" value="" style="rounded=1;whiteSpace=wrap;html=1;fillColor=#FFFFFF;" parent="1" vertex="1">
          <mxGeometry x="445" y="610" width="280" height="40" as="geometry" />
        </mxCell>
        <mxCell id="myLv9xXl2vDcifVCrI2M-19" value="&lt;span style=&quot;font-size: 24px&quot;&gt;BASIC INFORMATION&lt;/span&gt;" style="text;html=1;strokeColor=none;fillColor=#FFFFFF;align=center;verticalAlign=middle;whiteSpace=wrap;rounded=0;fontColor=#4D4D4D;" parent="1" vertex="1">
          <mxGeometry x="359" y="700" width="261" height="20" as="geometry" />
        </mxCell>
        <mxCell id="myLv9xXl2vDcifVCrI2M-21" value="&lt;span style=&quot;font-size: 14px&quot;&gt;&lt;b&gt;Gender:&lt;/b&gt;&lt;/span&gt;" style="text;html=1;strokeColor=none;fillColor=none;align=center;verticalAlign=middle;whiteSpace=wrap;rounded=0;" parent="1" vertex="1">
          <mxGeometry x="338" y="780" width="60" height="20" as="geometry" />
        </mxCell>
        <mxCell id="myLv9xXl2vDcifVCrI2M-23" value="&lt;span style=&quot;font-size: 14px&quot;&gt;&lt;b&gt;Hobbies:&lt;/b&gt;&lt;/span&gt;" style="text;html=1;strokeColor=none;fillColor=none;align=center;verticalAlign=middle;whiteSpace=wrap;rounded=0;" parent="1" vertex="1">
          <mxGeometry x="338" y="930" width="60" height="20" as="geometry" />
        </mxCell>
        <mxCell id="myLv9xXl2vDcifVCrI2M-24" value="&lt;span style=&quot;font-size: 14px&quot;&gt;&lt;b&gt;Birthday:&lt;/b&gt;&lt;/span&gt;" style="text;html=1;strokeColor=none;fillColor=none;align=center;verticalAlign=middle;whiteSpace=wrap;rounded=0;" parent="1" vertex="1">
          <mxGeometry x="343" y="850" width="60" height="20" as="geometry" />
        </mxCell>
        <mxCell id="myLv9xXl2vDcifVCrI2M-27" value="" style="rounded=1;whiteSpace=wrap;html=1;fillColor=#FFFFFF;" parent="1" vertex="1">
          <mxGeometry x="450" y="770" width="280" height="40" as="geometry" />
        </mxCell>
        <mxCell id="myLv9xXl2vDcifVCrI2M-28" value="" style="rounded=1;whiteSpace=wrap;html=1;fillColor=#FFFFFF;" parent="1" vertex="1">
          <mxGeometry x="450" y="850" width="280" height="40" as="geometry" />
        </mxCell>
        <mxCell id="myLv9xXl2vDcifVCrI2M-29" style="edgeStyle=orthogonalEdgeStyle;rounded=0;orthogonalLoop=1;jettySize=auto;html=1;exitX=0.5;exitY=1;exitDx=0;exitDy=0;fontColor=#4D4D4D;" parent="1" source="myLv9xXl2vDcifVCrI2M-23" target="myLv9xXl2vDcifVCrI2M-23" edge="1">
          <mxGeometry relative="1" as="geometry" />
        </mxCell>
        <mxCell id="myLv9xXl2vDcifVCrI2M-30" value="" style="rounded=1;whiteSpace=wrap;html=1;fillColor=#FFFFFF;" parent="1" vertex="1">
          <mxGeometry x="450" y="920" width="280" height="40" as="geometry" />
        </mxCell>
        <mxCell id="myLv9xXl2vDcifVCrI2M-31" value="&lt;span style=&quot;font-size: 14px&quot;&gt;&lt;b&gt;FAVORITE CATEGORIES&lt;/b&gt;&lt;/span&gt;" style="text;html=1;strokeColor=none;fillColor=none;align=center;verticalAlign=middle;whiteSpace=wrap;rounded=0;" parent="1" vertex="1">
          <mxGeometry x="90" y="1100" width="175" height="20" as="geometry" />
        </mxCell>
        <mxCell id="myLv9xXl2vDcifVCrI2M-34" value="" style="line;strokeWidth=2;html=1;fillColor=#FFFFFF;fontColor=#4D4D4D;" parent="1" vertex="1">
          <mxGeometry x="85" y="1120" width="330" height="10" as="geometry" />
        </mxCell>
        <mxCell id="myLv9xXl2vDcifVCrI2M-36" value="" style="shape=delay;whiteSpace=wrap;html=1;fillColor=#bac8d3;strokeColor=#23445d;" parent="1" vertex="1">
          <mxGeometry x="90" y="1140" width="100" height="30" as="geometry" />
        </mxCell>
        <mxCell id="myLv9xXl2vDcifVCrI2M-37" value="" style="shape=delay;whiteSpace=wrap;html=1;fillColor=#bac8d3;strokeColor=#23445d;" parent="1" vertex="1">
          <mxGeometry x="90" y="1180" width="100" height="30" as="geometry" />
        </mxCell>
        <mxCell id="myLv9xXl2vDcifVCrI2M-38" value="" style="shape=delay;whiteSpace=wrap;html=1;fillColor=#bac8d3;strokeColor=#23445d;" parent="1" vertex="1">
          <mxGeometry x="200" y="1180" width="100" height="30" as="geometry" />
        </mxCell>
        <mxCell id="myLv9xXl2vDcifVCrI2M-39" value="" style="shape=delay;whiteSpace=wrap;html=1;fillColor=#bac8d3;strokeColor=#23445d;" parent="1" vertex="1">
          <mxGeometry x="200" y="1140" width="100" height="30" as="geometry" />
        </mxCell>
        <mxCell id="myLv9xXl2vDcifVCrI2M-40" value="" style="shape=delay;whiteSpace=wrap;html=1;fillColor=#bac8d3;strokeColor=#23445d;" parent="1" vertex="1">
          <mxGeometry x="310" y="1140" width="100" height="30" as="geometry" />
        </mxCell>
        <mxCell id="myLv9xXl2vDcifVCrI2M-43" value="" style="verticalLabelPosition=bottom;verticalAlign=top;html=1;shape=mxgraph.basic.patternFillRect;fillStyle=diagGrid;step=5;fillStrokeWidth=0.2;fillStrokeColor=#dddddd;fillColor=#FFFFFF;fontColor=#4D4D4D;" parent="1" vertex="1">
          <mxGeometry x="80" y="70" width="230" height="230" as="geometry" />
        </mxCell>
        <mxCell id="myLv9xXl2vDcifVCrI2M-44" value="SAVE&lt;span style=&quot;font-family: monospace; font-size: 0px;&quot;&gt;%3CmxGraphModel%3E%3Croot%3E%3CmxCell%20id%3D%220%22%2F%3E%3CmxCell%20id%3D%221%22%20parent%3D%220%22%2F%3E%3CmxCell%20id%3D%222%22%20value%3D%22%22%20style%3D%22shape%3Ddelay%3BwhiteSpace%3Dwrap%3Bhtml%3D1%3BfillColor%3D%23FFFFFF%3BfontColor%3D%234D4D4D%3B%22%20vertex%3D%221%22%20parent%3D%221%22%3E%3CmxGeometry%20x%3D%2290%22%20y%3D%221070%22%20width%3D%22100%22%20height%3D%2230%22%20as%3D%22geometry%22%2F%3E%3C%2FmxCell%3E%3C%2Froot%3E%3C%2FmxGraphModel%3E&lt;/span&gt;&lt;span style=&quot;font-family: monospace; font-size: 0px;&quot;&gt;%3CmxGraphModel%3E%3Croot%3E%3CmxCell%20id%3D%220%22%2F%3E%3CmxCell%20id%3D%221%22%20parent%3D%220%22%2F%3E%3CmxCell%20id%3D%222%22%20value%3D%22%22%20style%3D%22shape%3Ddelay%3BwhiteSpace%3Dwrap%3Bhtml%3D1%3BfillColor%3D%23FFFFFF%3BfontColor%3D%234D4D4D%3B%22%20vertex%3D%221%22%20parent%3D%221%22%3E%3CmxGeometry%20x%3D%2290%22%20y%3D%221070%22%20width%3D%22100%22%20height%3D%2230%22%20as%3D%22geometry%22%2F%3E%3C%2FmxCell%3E%3C%2Froot%3E%3C%2FmxGraphModel%3E&lt;/span&gt;" style="labelPosition=center;verticalLabelPosition=middle;align=center;html=1;shape=mxgraph.basic.shaded_button;dx=2;fillColor=#1ba1e2;strokeColor=#006EAF;fontColor=#ffffff;" parent="1" vertex="1">
          <mxGeometry x="630" y="980" width="100" height="40" as="geometry" />
        </mxCell>
        <mxCell id="myLv9xXl2vDcifVCrI2M-45" value="EDIT" style="labelPosition=center;verticalLabelPosition=middle;align=center;html=1;shape=mxgraph.basic.shaded_button;dx=2;fillColor=#1ba1e2;strokeColor=#006EAF;fontColor=#ffffff;" parent="1" vertex="1">
          <mxGeometry x="510" y="980" width="100" height="40" as="geometry" />
        </mxCell>
        <mxCell id="myLv9xXl2vDcifVCrI2M-46" value="&lt;font style=&quot;font-size: 14px&quot;&gt;CATEGORY 1&lt;/font&gt;" style="text;html=1;strokeColor=none;fillColor=none;align=center;verticalAlign=middle;whiteSpace=wrap;rounded=0;fontColor=#3333FF;" parent="1" vertex="1">
          <mxGeometry x="90" y="1145" width="100" height="20" as="geometry" />
        </mxCell>
        <mxCell id="myLv9xXl2vDcifVCrI2M-51" value="&lt;font style=&quot;font-size: 14px&quot;&gt;CATEGORY 4&lt;/font&gt;" style="text;html=1;strokeColor=none;fillColor=none;align=center;verticalAlign=middle;whiteSpace=wrap;rounded=0;fontColor=#3333FF;" parent="1" vertex="1">
          <mxGeometry x="90" y="1185" width="100" height="20" as="geometry" />
        </mxCell>
        <mxCell id="myLv9xXl2vDcifVCrI2M-52" value="&lt;font style=&quot;font-size: 14px&quot;&gt;CATEGORY 5&lt;/font&gt;" style="text;html=1;strokeColor=none;fillColor=none;align=center;verticalAlign=middle;whiteSpace=wrap;rounded=0;fontColor=#3333FF;" parent="1" vertex="1">
          <mxGeometry x="200" y="1185" width="100" height="20" as="geometry" />
        </mxCell>
        <mxCell id="myLv9xXl2vDcifVCrI2M-53" value="&lt;font style=&quot;font-size: 14px&quot;&gt;CATEGORY 2&lt;/font&gt;" style="text;html=1;strokeColor=none;fillColor=none;align=center;verticalAlign=middle;whiteSpace=wrap;rounded=0;fontColor=#3333FF;" parent="1" vertex="1">
          <mxGeometry x="200" y="1145" width="100" height="20" as="geometry" />
        </mxCell>
        <mxCell id="myLv9xXl2vDcifVCrI2M-54" value="&lt;font style=&quot;font-size: 14px&quot;&gt;CATEGORY 3&lt;/font&gt;" style="text;html=1;strokeColor=none;fillColor=none;align=center;verticalAlign=middle;whiteSpace=wrap;rounded=0;fontColor=#3333FF;" parent="1" vertex="1">
          <mxGeometry x="310" y="1145" width="100" height="20" as="geometry" />
        </mxCell>
        <mxCell id="9nziqIlww0SZ3SQyCOct-1" value="" style="rounded=0;whiteSpace=wrap;html=1;fillColor=#FFFFFF;fontColor=#3333FF;" parent="1" vertex="1">
          <mxGeometry x="20" y="-60" width="870" height="50" as="geometry" />
        </mxCell>
        <mxCell id="9nziqIlww0SZ3SQyCOct-2" value="&lt;font style=&quot;font-size: 36px&quot; face=&quot;Georgia&quot;&gt;A&lt;/font&gt;&lt;font style=&quot;font-size: 24px&quot; face=&quot;Georgia&quot;&gt;ce&lt;/font&gt;" style="text;html=1;strokeColor=none;fillColor=none;align=center;verticalAlign=middle;whiteSpace=wrap;rounded=0;" parent="1" vertex="1">
          <mxGeometry x="49" y="-54" width="41" height="38" as="geometry" />
        </mxCell>
        <mxCell id="9nziqIlww0SZ3SQyCOct-3" value="" style="shape=image;html=1;verticalAlign=top;verticalLabelPosition=bottom;labelBackgroundColor=#ffffff;imageAspect=0;aspect=fixed;image=https://cdn4.iconfinder.com/data/icons/wirecons-free-vector-icons/32/menu-alt-128.png;fillColor=#FFFFFF;fontColor=#3333FF;" parent="1" vertex="1">
          <mxGeometry x="810" y="-65" width="60" height="60" as="geometry" />
        </mxCell>
        <mxCell id="bS3kRQc6KPHo9bHqtigx-1" value="&lt;font style=&quot;font-size: 24px&quot;&gt;Profile&lt;/font&gt;" style="text;html=1;strokeColor=none;fillColor=none;align=center;verticalAlign=middle;whiteSpace=wrap;rounded=0;" vertex="1" parent="1">
          <mxGeometry x="128" y="25" width="72" height="30" as="geometry" />
        </mxCell>
        <mxCell id="bS3kRQc6KPHo9bHqtigx-3" value="" style="shape=image;html=1;verticalAlign=top;verticalLabelPosition=bottom;labelBackgroundColor=#ffffff;imageAspect=0;aspect=fixed;image=https://cdn1.iconfinder.com/data/icons/instagram-ui-glyph/48/Sed-01-128.png" vertex="1" parent="1">
          <mxGeometry x="70" y="7" width="58" height="58" as="geometry" />
        </mxCell>
      </root>
    </mxGraphModel>
  </diagram>
</mxfile>
